<mxfile host="app.diagrams.net" modified="2023-11-23T08:45:30.641Z" agent="Mozilla/5.0 (Windows NT 10.0; Win64; x64) AppleWebKit/537.36 (KHTML, like Gecko) Chrome/119.0.0.0 Safari/537.36" etag="nA05TPNlGkJXRU6r5whQ" version="21.7.2" type="github">
  <diagram name="第 1 页" id="ergHUzXghdu48mOkxfZ9">
    <mxGraphModel dx="1094" dy="593" grid="0" gridSize="10" guides="1" tooltips="1" connect="1" arrows="1" fold="1" page="1" pageScale="1" pageWidth="827" pageHeight="1169" background="none" math="0" shadow="0">
      <root>
        <mxCell id="0" />
        <mxCell id="1" parent="0" />
        <mxCell id="fPxglKkb8lsgMMI8yU8m-34" value="制造商编码" style="text;strokeColor=none;fillColor=none;html=1;fontSize=18;fontStyle=1;verticalAlign=middle;align=center;movable=1;resizable=1;rotatable=1;deletable=1;editable=1;locked=0;connectable=1;" parent="1" vertex="1">
          <mxGeometry x="205" y="870.9999999999999" width="100" height="40" as="geometry" />
        </mxCell>
        <mxCell id="fPxglKkb8lsgMMI8yU8m-35" value="" style="edgeStyle=segmentEdgeStyle;endArrow=classic;html=1;curved=0;rounded=0;endSize=8;startSize=8;exitX=0.116;exitY=1.009;exitDx=0;exitDy=0;exitPerimeter=0;movable=1;resizable=1;rotatable=1;deletable=1;editable=1;locked=0;connectable=1;entryX=0;entryY=0.5;entryDx=0;entryDy=0;" parent="1" target="fPxglKkb8lsgMMI8yU8m-34" edge="1">
          <mxGeometry width="50" height="50" relative="1" as="geometry">
            <mxPoint x="123.00199999999994" y="739.9959999999999" as="sourcePoint" />
            <mxPoint x="198.49" y="873.3103448275863" as="targetPoint" />
            <Array as="points">
              <mxPoint x="124" y="740" />
              <mxPoint x="124" y="892" />
              <mxPoint x="196" y="892" />
            </Array>
          </mxGeometry>
        </mxCell>
        <mxCell id="FJMeuyJBNWMCIe64IlPQ-12" value="" style="edgeStyle=segmentEdgeStyle;endArrow=classic;html=1;curved=0;rounded=0;endSize=8;startSize=8;movable=1;resizable=1;rotatable=1;deletable=1;editable=1;locked=0;connectable=1;exitX=0.5;exitY=1;exitDx=0;exitDy=0;" edge="1" parent="1" source="FJMeuyJBNWMCIe64IlPQ-28" target="FJMeuyJBNWMCIe64IlPQ-34">
          <mxGeometry width="50" height="50" relative="1" as="geometry">
            <mxPoint x="432" y="727" as="sourcePoint" />
            <mxPoint x="516" y="793" as="targetPoint" />
            <Array as="points">
              <mxPoint x="440" y="805" />
            </Array>
          </mxGeometry>
        </mxCell>
        <mxCell id="FJMeuyJBNWMCIe64IlPQ-15" value="年份" style="text;strokeColor=none;fillColor=none;html=1;fontSize=18;fontStyle=1;verticalAlign=middle;align=center;movable=1;resizable=1;rotatable=1;deletable=1;editable=1;locked=0;connectable=1;" vertex="1" parent="1">
          <mxGeometry x="576" y="761" width="40" height="30" as="geometry" />
        </mxCell>
        <mxCell id="FJMeuyJBNWMCIe64IlPQ-16" value="" style="edgeStyle=segmentEdgeStyle;endArrow=classic;html=1;curved=0;rounded=0;endSize=8;startSize=8;movable=1;resizable=1;rotatable=1;deletable=1;editable=1;locked=0;connectable=1;" edge="1" parent="1">
          <mxGeometry width="50" height="50" relative="1" as="geometry">
            <mxPoint x="523" y="736" as="sourcePoint" />
            <mxPoint x="574" y="776" as="targetPoint" />
            <Array as="points">
              <mxPoint x="523" y="776" />
              <mxPoint x="574" y="776" />
            </Array>
          </mxGeometry>
        </mxCell>
        <mxCell id="FJMeuyJBNWMCIe64IlPQ-33" value="" style="group" vertex="1" connectable="0" parent="1">
          <mxGeometry x="77" y="664" width="651.5" height="75" as="geometry" />
        </mxCell>
        <mxCell id="FJMeuyJBNWMCIe64IlPQ-21" value="" style="rounded=0;whiteSpace=wrap;html=1;" vertex="1" parent="FJMeuyJBNWMCIe64IlPQ-33">
          <mxGeometry width="651" height="75" as="geometry" />
        </mxCell>
        <mxCell id="FJMeuyJBNWMCIe64IlPQ-23" value="L1" style="rounded=0;whiteSpace=wrap;html=1;fillColor=#b1ddf0;strokeColor=#6c8ebf;fontStyle=1;fontSize=35;" vertex="1" parent="FJMeuyJBNWMCIe64IlPQ-33">
          <mxGeometry width="90" height="75" as="geometry" />
        </mxCell>
        <mxCell id="FJMeuyJBNWMCIe64IlPQ-26" value="1000" style="rounded=0;whiteSpace=wrap;html=1;fillColor=#d0cee2;strokeColor=#56517e;fontStyle=1;fontSize=35;" vertex="1" parent="FJMeuyJBNWMCIe64IlPQ-33">
          <mxGeometry x="89" width="140" height="75" as="geometry" />
        </mxCell>
        <mxCell id="FJMeuyJBNWMCIe64IlPQ-27" value="11" style="rounded=0;whiteSpace=wrap;html=1;fillColor=#cdeb8b;fontStyle=1;fontSize=35;" vertex="1" parent="FJMeuyJBNWMCIe64IlPQ-33">
          <mxGeometry x="229" width="90" height="75" as="geometry" />
        </mxCell>
        <mxCell id="FJMeuyJBNWMCIe64IlPQ-28" value="15" style="rounded=0;whiteSpace=wrap;html=1;fillColor=#d5e8d4;fontStyle=1;fontSize=35;" vertex="1" parent="FJMeuyJBNWMCIe64IlPQ-33">
          <mxGeometry x="318" width="90" height="75" as="geometry" />
        </mxCell>
        <mxCell id="FJMeuyJBNWMCIe64IlPQ-29" value="23" style="rounded=0;whiteSpace=wrap;html=1;fillColor=#fff2cc;fontStyle=1;fontSize=35;" vertex="1" parent="FJMeuyJBNWMCIe64IlPQ-33">
          <mxGeometry x="408" width="90" height="75" as="geometry" />
        </mxCell>
        <mxCell id="FJMeuyJBNWMCIe64IlPQ-30" value="00001" style="rounded=0;whiteSpace=wrap;html=1;fillColor=#fad9d5;fontStyle=1;fontSize=35;" vertex="1" parent="FJMeuyJBNWMCIe64IlPQ-33">
          <mxGeometry x="496.5" width="155" height="75" as="geometry" />
        </mxCell>
        <mxCell id="FJMeuyJBNWMCIe64IlPQ-34" value="&amp;nbsp;月份" style="text;strokeColor=none;fillColor=none;html=1;fontSize=18;fontStyle=1;verticalAlign=middle;align=center;movable=1;resizable=1;rotatable=1;deletable=1;editable=1;locked=0;connectable=1;" vertex="1" parent="1">
          <mxGeometry x="516" y="790" width="40" height="30" as="geometry" />
        </mxCell>
        <mxCell id="FJMeuyJBNWMCIe64IlPQ-37" value="流水号" style="text;strokeColor=none;fillColor=none;html=1;fontSize=18;fontStyle=1;verticalAlign=middle;align=center;movable=1;resizable=1;rotatable=1;deletable=1;editable=1;locked=0;connectable=1;" vertex="1" parent="1">
          <mxGeometry x="692.5" y="740" width="40" height="30" as="geometry" />
        </mxCell>
        <mxCell id="FJMeuyJBNWMCIe64IlPQ-38" value="" style="edgeStyle=segmentEdgeStyle;endArrow=classic;html=1;curved=0;rounded=0;endSize=8;startSize=8;movable=1;resizable=1;rotatable=1;deletable=1;editable=1;locked=0;connectable=1;exitX=0.476;exitY=1.004;exitDx=0;exitDy=0;exitPerimeter=0;" edge="1" parent="1">
          <mxGeometry width="50" height="50" relative="1" as="geometry">
            <mxPoint x="647.28" y="738.3000000000001" as="sourcePoint" />
            <mxPoint x="686" y="755" as="targetPoint" />
            <Array as="points">
              <mxPoint x="647" y="756" />
              <mxPoint x="679" y="756" />
            </Array>
          </mxGeometry>
        </mxCell>
        <mxCell id="FJMeuyJBNWMCIe64IlPQ-41" value="" style="edgeStyle=segmentEdgeStyle;endArrow=classic;html=1;curved=0;rounded=0;endSize=8;startSize=8;movable=1;resizable=1;rotatable=1;deletable=1;editable=1;locked=0;connectable=1;entryX=0;entryY=0.5;entryDx=0;entryDy=0;" edge="1" parent="1" target="FJMeuyJBNWMCIe64IlPQ-45">
          <mxGeometry width="50" height="50" relative="1" as="geometry">
            <mxPoint x="348.9655172413793" y="739" as="sourcePoint" />
            <mxPoint x="444" y="840" as="targetPoint" />
            <Array as="points">
              <mxPoint x="349" y="838" />
            </Array>
          </mxGeometry>
        </mxCell>
        <mxCell id="FJMeuyJBNWMCIe64IlPQ-45" value="日期" style="text;strokeColor=none;fillColor=none;html=1;fontSize=18;fontStyle=1;verticalAlign=middle;align=center;movable=1;resizable=1;rotatable=1;deletable=1;editable=1;locked=0;connectable=1;" vertex="1" parent="1">
          <mxGeometry x="460" y="823.33" width="40" height="30" as="geometry" />
        </mxCell>
        <mxCell id="FJMeuyJBNWMCIe64IlPQ-46" value="" style="edgeStyle=segmentEdgeStyle;endArrow=classic;html=1;curved=0;rounded=0;endSize=8;startSize=8;movable=1;resizable=1;rotatable=1;deletable=1;editable=1;locked=0;connectable=1;" edge="1" parent="1">
          <mxGeometry width="50" height="50" relative="1" as="geometry">
            <mxPoint x="229.9655172413793" y="740" as="sourcePoint" />
            <mxPoint x="263" y="839" as="targetPoint" />
            <Array as="points">
              <mxPoint x="230" y="839" />
            </Array>
          </mxGeometry>
        </mxCell>
        <mxCell id="FJMeuyJBNWMCIe64IlPQ-47" value="工单号" style="text;strokeColor=none;fillColor=none;html=1;fontSize=18;fontStyle=1;verticalAlign=middle;align=center;movable=1;resizable=1;rotatable=1;deletable=1;editable=1;locked=0;connectable=1;" vertex="1" parent="1">
          <mxGeometry x="275" y="823.33" width="40" height="30" as="geometry" />
        </mxCell>
        <mxCell id="FJMeuyJBNWMCIe64IlPQ-48" value="" style="shape=curlyBracket;whiteSpace=wrap;html=1;rounded=1;labelPosition=left;verticalLabelPosition=middle;align=right;verticalAlign=middle;rotation=90;" vertex="1" parent="1">
          <mxGeometry x="429.5" y="519.5" width="20" height="267" as="geometry" />
        </mxCell>
        <mxCell id="FJMeuyJBNWMCIe64IlPQ-49" value="QS码生成日期" style="text;strokeColor=none;fillColor=none;html=1;fontSize=18;fontStyle=1;verticalAlign=middle;align=center;movable=1;resizable=1;rotatable=1;deletable=1;editable=1;locked=0;connectable=1;" vertex="1" parent="1">
          <mxGeometry x="420" y="616" width="40" height="30" as="geometry" />
        </mxCell>
        <mxCell id="FJMeuyJBNWMCIe64IlPQ-50" value="制造商编码" style="text;strokeColor=none;fillColor=none;html=1;fontSize=18;fontStyle=1;verticalAlign=middle;align=center;movable=1;resizable=1;rotatable=1;deletable=1;editable=1;locked=0;connectable=1;" vertex="1" parent="1">
          <mxGeometry x="221" y="359.4999999999999" width="100" height="40" as="geometry" />
        </mxCell>
        <mxCell id="FJMeuyJBNWMCIe64IlPQ-51" value="" style="edgeStyle=segmentEdgeStyle;endArrow=classic;html=1;curved=0;rounded=0;endSize=8;startSize=8;exitX=0.116;exitY=1.009;exitDx=0;exitDy=0;exitPerimeter=0;movable=1;resizable=1;rotatable=1;deletable=1;editable=1;locked=0;connectable=1;entryX=0;entryY=0.5;entryDx=0;entryDy=0;" edge="1" parent="1" target="FJMeuyJBNWMCIe64IlPQ-50">
          <mxGeometry width="50" height="50" relative="1" as="geometry">
            <mxPoint x="139.00199999999995" y="228.49599999999987" as="sourcePoint" />
            <mxPoint x="214.49" y="361.8103448275863" as="targetPoint" />
            <Array as="points">
              <mxPoint x="140" y="228.5" />
              <mxPoint x="140" y="380.5" />
              <mxPoint x="212" y="380.5" />
            </Array>
          </mxGeometry>
        </mxCell>
        <mxCell id="FJMeuyJBNWMCIe64IlPQ-52" value="" style="edgeStyle=segmentEdgeStyle;endArrow=classic;html=1;curved=0;rounded=0;endSize=8;startSize=8;movable=1;resizable=1;rotatable=1;deletable=1;editable=1;locked=0;connectable=1;exitX=0.5;exitY=1;exitDx=0;exitDy=0;" edge="1" parent="1" source="FJMeuyJBNWMCIe64IlPQ-60" target="FJMeuyJBNWMCIe64IlPQ-63">
          <mxGeometry width="50" height="50" relative="1" as="geometry">
            <mxPoint x="448" y="215.5" as="sourcePoint" />
            <mxPoint x="532" y="281.5" as="targetPoint" />
            <Array as="points">
              <mxPoint x="456" y="293.5" />
            </Array>
          </mxGeometry>
        </mxCell>
        <mxCell id="FJMeuyJBNWMCIe64IlPQ-53" value="年份" style="text;strokeColor=none;fillColor=none;html=1;fontSize=18;fontStyle=1;verticalAlign=middle;align=center;movable=1;resizable=1;rotatable=1;deletable=1;editable=1;locked=0;connectable=1;" vertex="1" parent="1">
          <mxGeometry x="592" y="249.5" width="40" height="30" as="geometry" />
        </mxCell>
        <mxCell id="FJMeuyJBNWMCIe64IlPQ-54" value="" style="edgeStyle=segmentEdgeStyle;endArrow=classic;html=1;curved=0;rounded=0;endSize=8;startSize=8;movable=1;resizable=1;rotatable=1;deletable=1;editable=1;locked=0;connectable=1;" edge="1" parent="1">
          <mxGeometry width="50" height="50" relative="1" as="geometry">
            <mxPoint x="539" y="224.5" as="sourcePoint" />
            <mxPoint x="590" y="264.5" as="targetPoint" />
            <Array as="points">
              <mxPoint x="539" y="264.5" />
              <mxPoint x="590" y="264.5" />
            </Array>
          </mxGeometry>
        </mxCell>
        <mxCell id="FJMeuyJBNWMCIe64IlPQ-55" value="" style="group;movable=1;resizable=1;rotatable=1;deletable=1;editable=1;locked=0;connectable=1;" vertex="1" connectable="0" parent="1">
          <mxGeometry x="78" y="152.5" width="651.5" height="75" as="geometry" />
        </mxCell>
        <mxCell id="FJMeuyJBNWMCIe64IlPQ-56" value="" style="rounded=0;whiteSpace=wrap;html=1;" vertex="1" parent="FJMeuyJBNWMCIe64IlPQ-55">
          <mxGeometry x="11" width="639" height="75" as="geometry" />
        </mxCell>
        <mxCell id="FJMeuyJBNWMCIe64IlPQ-57" value="L1" style="rounded=0;whiteSpace=wrap;html=1;fillColor=#b1ddf0;strokeColor=#6c8ebf;fontStyle=1;fontSize=35;" vertex="1" parent="FJMeuyJBNWMCIe64IlPQ-55">
          <mxGeometry x="12" width="90" height="75" as="geometry" />
        </mxCell>
        <mxCell id="FJMeuyJBNWMCIe64IlPQ-58" value="1000" style="rounded=0;whiteSpace=wrap;html=1;fillColor=#d0cee2;strokeColor=#56517e;fontStyle=1;fontSize=35;" vertex="1" parent="FJMeuyJBNWMCIe64IlPQ-55">
          <mxGeometry x="102" width="140" height="75" as="geometry" />
        </mxCell>
        <mxCell id="FJMeuyJBNWMCIe64IlPQ-59" value="11" style="rounded=0;whiteSpace=wrap;html=1;fillColor=#cdeb8b;fontStyle=1;fontSize=35;" vertex="1" parent="FJMeuyJBNWMCIe64IlPQ-55">
          <mxGeometry x="242" width="90" height="75" as="geometry" />
        </mxCell>
        <mxCell id="FJMeuyJBNWMCIe64IlPQ-60" value="15" style="rounded=0;whiteSpace=wrap;html=1;fillColor=#d5e8d4;fontStyle=1;fontSize=35;" vertex="1" parent="FJMeuyJBNWMCIe64IlPQ-55">
          <mxGeometry x="332" width="90" height="75" as="geometry" />
        </mxCell>
        <mxCell id="FJMeuyJBNWMCIe64IlPQ-61" value="23" style="rounded=0;whiteSpace=wrap;html=1;fillColor=#fff2cc;fontStyle=1;fontSize=35;" vertex="1" parent="FJMeuyJBNWMCIe64IlPQ-55">
          <mxGeometry x="422" width="90" height="75" as="geometry" />
        </mxCell>
        <mxCell id="FJMeuyJBNWMCIe64IlPQ-62" value="0001" style="rounded=0;whiteSpace=wrap;html=1;fillColor=#fad9d5;fontStyle=1;fontSize=35;" vertex="1" parent="FJMeuyJBNWMCIe64IlPQ-55">
          <mxGeometry x="511.5" width="140" height="75" as="geometry" />
        </mxCell>
        <mxCell id="FJMeuyJBNWMCIe64IlPQ-63" value="&amp;nbsp;月份" style="text;strokeColor=none;fillColor=none;html=1;fontSize=18;fontStyle=1;verticalAlign=middle;align=center;movable=1;resizable=1;rotatable=1;deletable=1;editable=1;locked=0;connectable=1;" vertex="1" parent="1">
          <mxGeometry x="532" y="278.5" width="40" height="30" as="geometry" />
        </mxCell>
        <mxCell id="FJMeuyJBNWMCIe64IlPQ-64" value="流水号" style="text;strokeColor=none;fillColor=none;html=1;fontSize=18;fontStyle=1;verticalAlign=middle;align=center;movable=1;resizable=1;rotatable=1;deletable=1;editable=1;locked=0;connectable=1;" vertex="1" parent="1">
          <mxGeometry x="708.5" y="228.5" width="40" height="30" as="geometry" />
        </mxCell>
        <mxCell id="FJMeuyJBNWMCIe64IlPQ-65" value="" style="edgeStyle=segmentEdgeStyle;endArrow=classic;html=1;curved=0;rounded=0;endSize=8;startSize=8;movable=1;resizable=1;rotatable=1;deletable=1;editable=1;locked=0;connectable=1;exitX=0.476;exitY=1.004;exitDx=0;exitDy=0;exitPerimeter=0;" edge="1" parent="1">
          <mxGeometry width="50" height="50" relative="1" as="geometry">
            <mxPoint x="663.28" y="226.80000000000007" as="sourcePoint" />
            <mxPoint x="702" y="243.5" as="targetPoint" />
            <Array as="points">
              <mxPoint x="663" y="244.5" />
              <mxPoint x="695" y="244.5" />
            </Array>
          </mxGeometry>
        </mxCell>
        <mxCell id="FJMeuyJBNWMCIe64IlPQ-66" value="" style="edgeStyle=segmentEdgeStyle;endArrow=classic;html=1;curved=0;rounded=0;endSize=8;startSize=8;movable=1;resizable=1;rotatable=1;deletable=1;editable=1;locked=0;connectable=1;entryX=0;entryY=0.5;entryDx=0;entryDy=0;" edge="1" parent="1" target="FJMeuyJBNWMCIe64IlPQ-67">
          <mxGeometry width="50" height="50" relative="1" as="geometry">
            <mxPoint x="364.9655172413793" y="227.5" as="sourcePoint" />
            <mxPoint x="460" y="328.5" as="targetPoint" />
            <Array as="points">
              <mxPoint x="365" y="326.5" />
            </Array>
          </mxGeometry>
        </mxCell>
        <mxCell id="FJMeuyJBNWMCIe64IlPQ-67" value="日期" style="text;strokeColor=none;fillColor=none;html=1;fontSize=18;fontStyle=1;verticalAlign=middle;align=center;movable=1;resizable=1;rotatable=1;deletable=1;editable=1;locked=0;connectable=1;" vertex="1" parent="1">
          <mxGeometry x="476" y="311.83000000000004" width="40" height="30" as="geometry" />
        </mxCell>
        <mxCell id="FJMeuyJBNWMCIe64IlPQ-68" value="" style="edgeStyle=segmentEdgeStyle;endArrow=classic;html=1;curved=0;rounded=0;endSize=8;startSize=8;movable=1;resizable=1;rotatable=1;deletable=1;editable=1;locked=0;connectable=1;" edge="1" parent="1">
          <mxGeometry width="50" height="50" relative="1" as="geometry">
            <mxPoint x="245.9655172413793" y="228.5" as="sourcePoint" />
            <mxPoint x="279" y="327.5" as="targetPoint" />
            <Array as="points">
              <mxPoint x="246" y="327.5" />
            </Array>
          </mxGeometry>
        </mxCell>
        <mxCell id="FJMeuyJBNWMCIe64IlPQ-69" value="工单号" style="text;strokeColor=none;fillColor=none;html=1;fontSize=18;fontStyle=1;verticalAlign=middle;align=center;movable=1;resizable=1;rotatable=1;deletable=1;editable=1;locked=0;connectable=1;" vertex="1" parent="1">
          <mxGeometry x="291" y="311.83000000000004" width="40" height="30" as="geometry" />
        </mxCell>
        <mxCell id="FJMeuyJBNWMCIe64IlPQ-70" value="" style="shape=curlyBracket;whiteSpace=wrap;html=1;rounded=1;labelPosition=left;verticalLabelPosition=middle;align=right;verticalAlign=middle;rotation=90;" vertex="1" parent="1">
          <mxGeometry x="445.5" y="8" width="20" height="267" as="geometry" />
        </mxCell>
        <mxCell id="FJMeuyJBNWMCIe64IlPQ-71" value="集合码生成日期" style="text;strokeColor=none;fillColor=none;html=1;fontSize=18;fontStyle=1;verticalAlign=middle;align=center;movable=1;resizable=1;rotatable=1;deletable=1;editable=1;locked=0;connectable=1;" vertex="1" parent="1">
          <mxGeometry x="436" y="104.5" width="40" height="30" as="geometry" />
        </mxCell>
      </root>
    </mxGraphModel>
  </diagram>
</mxfile>
